<svg xmlns="http://www.w3.org/2000/svg" xmlns:xlink="http://www.w3.org/1999/xlink" version="1.1" width="256" height="256" viewBox="0 0 256 256" xml:space="preserve">

<defs>
</defs>
<g style="stroke: none; stroke-width: 0; stroke-dasharray: none; stroke-linecap: butt; stroke-linejoin: miter; stroke-miterlimit: 10; fill: none; fill-rule: nonzero; opacity: 1;" transform="translate(1.4065934065934016 1.4065934065934016) scale(2.81 2.81)" >
	<path d="M 83.914 69.449 V 17.907 c 0 -1.263 -1.024 -2.288 -2.288 -2.288 H 8.373 c -1.263 0 -2.288 1.024 -2.288 2.288 v 51.541 H 83.914 z" style="stroke: none; stroke-width: 1; stroke-dasharray: none; stroke-linecap: butt; stroke-linejoin: miter; stroke-miterlimit: 10; fill: rgb(29,84,189); fill-rule: nonzero; opacity: 1;" transform=" matrix(1 0 0 1 0 0) " stroke-linecap="round" />
	<path d="M 78.5 59.449 v -36.31 c 0 -1.162 -0.942 -2.104 -2.104 -2.104 H 13.604 c -1.162 0 -2.104 0.942 -2.104 2.104 v 36.31 H 78.5 z" style="stroke: none; stroke-width: 1; stroke-dasharray: none; stroke-linecap: butt; stroke-linejoin: miter; stroke-miterlimit: 10; fill: rgb(168,207,255); fill-rule: nonzero; opacity: 1;" transform=" matrix(1 0 0 1 0 0) " stroke-linecap="round" />
	<path d="M 56.997 64.449 v 3.857 H 33.003 v -3.857 H 1 v 3.234 c 0 3.699 2.999 6.698 6.698 6.698 h 74.604 c 3.699 0 6.698 -2.999 6.698 -6.698 v -3.234 H 56.997 z" style="stroke: none; stroke-width: 1; stroke-dasharray: none; stroke-linecap: butt; stroke-linejoin: miter; stroke-miterlimit: 10; fill: rgb(173,238,255); fill-rule: nonzero; opacity: 1;" transform=" matrix(1 0 0 1 0 0) " stroke-linecap="round" />
	<path d="M 82.302 75.38 H 7.698 C 3.454 75.38 0 71.927 0 67.682 v -3.233 c 0 -0.553 0.448 -1 1 -1 h 32.003 c 0.552 0 1 0.447 1 1 v 2.857 h 21.994 v -2.857 c 0 -0.553 0.447 -1 1 -1 H 89 c 0.553 0 1 0.447 1 1 v 3.233 C 90 71.927 86.547 75.38 82.302 75.38 z M 2 65.448 v 2.233 c 0 3.142 2.556 5.698 5.698 5.698 h 74.604 c 3.142 0 5.698 -2.557 5.698 -5.698 v -2.233 H 57.997 v 2.857 c 0 0.553 -0.447 1 -1 1 H 33.003 c -0.552 0 -1 -0.447 -1 -1 v -2.857 H 2 z" style="stroke: none; stroke-width: 1; stroke-dasharray: none; stroke-linecap: butt; stroke-linejoin: miter; stroke-miterlimit: 10; fill: rgb(8,28,66); fill-rule: nonzero; opacity: 1;" transform=" matrix(1 0 0 1 0 0) " stroke-linecap="round" />
	<path d="M 83.914 65.448 c -0.553 0 -1 -0.447 -1 -1 V 17.907 c 0 -0.71 -0.577 -1.288 -1.287 -1.288 H 8.374 c -0.71 0 -1.288 0.578 -1.288 1.288 v 46.541 c 0 0.553 -0.448 1 -1 1 s -1 -0.447 -1 -1 V 17.907 c 0 -1.813 1.475 -3.288 3.288 -3.288 h 73.253 c 1.813 0 3.287 1.475 3.287 3.288 v 46.541 C 84.914 65.001 84.467 65.448 83.914 65.448 z" style="stroke: none; stroke-width: 1; stroke-dasharray: none; stroke-linecap: butt; stroke-linejoin: miter; stroke-miterlimit: 10; fill: rgb(8,28,66); fill-rule: nonzero; opacity: 1;" transform=" matrix(1 0 0 1 0 0) " stroke-linecap="round" />
	<path d="M 78.5 60.448 h -67 c -0.552 0 -1 -0.447 -1 -1 v -36.31 c 0 -1.712 1.393 -3.104 3.104 -3.104 h 62.791 c 1.712 0 3.104 1.393 3.104 3.104 v 36.31 C 79.5 60.001 79.053 60.448 78.5 60.448 z M 12.5 58.448 h 65 v -35.31 c 0 -0.609 -0.495 -1.104 -1.104 -1.104 H 13.604 c -0.609 0 -1.104 0.496 -1.104 1.104 V 58.448 z" style="stroke: none; stroke-width: 1; stroke-dasharray: none; stroke-linecap: butt; stroke-linejoin: miter; stroke-miterlimit: 10; fill: rgb(8,28,66); fill-rule: nonzero; opacity: 1;" transform=" matrix(1 0 0 1 0 0) " stroke-linecap="round" />
	<circle cx="45" cy="40" r="12.5" style="stroke: none; stroke-width: 1; stroke-dasharray: none; stroke-linecap: butt; stroke-linejoin: miter; stroke-miterlimit: 10; fill: rgb(224,188,75); fill-rule: nonzero; opacity: 1;" transform="  matrix(1 0 0 1 0 0) "/>
	<path d="M 45 53.5 c -7.444 0 -13.5 -6.056 -13.5 -13.5 c 0 -7.444 6.056 -13.5 13.5 -13.5 c 7.444 0 13.5 6.056 13.5 13.5 C 58.5 47.444 52.444 53.5 45 53.5 z M 45 28.5 c -6.341 0 -11.5 5.159 -11.5 11.5 c 0 6.341 5.159 11.5 11.5 11.5 c 6.341 0 11.5 -5.159 11.5 -11.5 C 56.5 33.659 51.341 28.5 45 28.5 z" style="stroke: none; stroke-width: 1; stroke-dasharray: none; stroke-linecap: butt; stroke-linejoin: miter; stroke-miterlimit: 10; fill: rgb(8,28,66); fill-rule: nonzero; opacity: 1;" transform=" matrix(1 0 0 1 0 0) " stroke-linecap="round" />
	<path d="M 45.001 41 c -0.04 0 -0.08 -0.002 -0.12 -0.007 c -3.693 -0.439 -4.244 -2.917 -4.244 -4.355 c 0 -0.552 0.448 -1 1 -1 s 1 0.448 1 1 c 0 1.077 0.3 2.11 2.48 2.369 c 0.548 0.065 0.94 0.563 0.875 1.111 C 45.933 40.626 45.501 41 45.001 41 z" style="stroke: none; stroke-width: 1; stroke-dasharray: none; stroke-linecap: butt; stroke-linejoin: miter; stroke-miterlimit: 10; fill: rgb(8,28,66); fill-rule: nonzero; opacity: 1;" transform=" matrix(1 0 0 1 0 0) " stroke-linecap="round" />
	<path d="M 48.362 37.638 c -0.553 0 -1 -0.448 -1 -1 c 0 -1.303 -1.06 -2.363 -2.362 -2.363 s -2.362 1.06 -2.362 2.363 c 0 0.552 -0.448 1 -1 1 s -1 -0.448 -1 -1 c 0 -2.406 1.957 -4.363 4.362 -4.363 s 4.362 1.957 4.362 4.363 C 49.362 37.19 48.915 37.638 48.362 37.638 z" style="stroke: none; stroke-width: 1; stroke-dasharray: none; stroke-linecap: butt; stroke-linejoin: miter; stroke-miterlimit: 10; fill: rgb(8,28,66); fill-rule: nonzero; opacity: 1;" transform=" matrix(1 0 0 1 0 0) " stroke-linecap="round" />
	<path d="M 45 47.725 c -2.405 0 -4.362 -1.957 -4.362 -4.362 c 0 -0.552 0.448 -1 1 -1 s 1 0.448 1 1 c 0 1.303 1.06 2.362 2.362 2.362 s 2.362 -1.06 2.362 -2.362 c 0 -0.552 0.447 -1 1 -1 s 1 0.448 1 1 C 49.362 45.768 47.405 47.725 45 47.725 z" style="stroke: none; stroke-width: 1; stroke-dasharray: none; stroke-linecap: butt; stroke-linejoin: miter; stroke-miterlimit: 10; fill: rgb(8,28,66); fill-rule: nonzero; opacity: 1;" transform=" matrix(1 0 0 1 0 0) " stroke-linecap="round" />
	<path d="M 45 34.275 c -0.552 0 -1 -0.448 -1 -1 v -1.524 c 0 -0.552 0.448 -1 1 -1 s 1 0.448 1 1 v 1.524 C 46 33.827 45.552 34.275 45 34.275 z" style="stroke: none; stroke-width: 1; stroke-dasharray: none; stroke-linecap: butt; stroke-linejoin: miter; stroke-miterlimit: 10; fill: rgb(8,28,66); fill-rule: nonzero; opacity: 1;" transform=" matrix(1 0 0 1 0 0) " stroke-linecap="round" />
	<path d="M 45 49.249 c -0.552 0 -1 -0.447 -1 -1 v -1.524 c 0 -0.553 0.448 -1 1 -1 s 1 0.447 1 1 v 1.524 C 46 48.802 45.552 49.249 45 49.249 z" style="stroke: none; stroke-width: 1; stroke-dasharray: none; stroke-linecap: butt; stroke-linejoin: miter; stroke-miterlimit: 10; fill: rgb(8,28,66); fill-rule: nonzero; opacity: 1;" transform=" matrix(1 0 0 1 0 0) " stroke-linecap="round" />
	<path d="M 48.362 44.362 c -0.553 0 -1 -0.448 -1 -1 c 0 -1.077 -0.301 -2.11 -2.48 -2.369 c -0.548 -0.065 -0.94 -0.563 -0.875 -1.111 c 0.065 -0.549 0.562 -0.937 1.111 -0.875 c 3.692 0.439 4.244 2.917 4.244 4.355 C 49.362 43.915 48.915 44.362 48.362 44.362 z" style="stroke: none; stroke-width: 1; stroke-dasharray: none; stroke-linecap: butt; stroke-linejoin: miter; stroke-miterlimit: 10; fill: rgb(8,28,66); fill-rule: nonzero; opacity: 1;" transform=" matrix(1 0 0 1 0 0) " stroke-linecap="round" />
</g>
</svg>